<svg xmlns="http://www.w3.org/2000/svg" viewBox="0 0 400 200" width="400" height="200">
<defs><linearGradient id="s" x1="0" y1="0" x2="0" y2="1"><stop offset="0" stop-color="#0b1128"/><stop offset="0.5" stop-color="#1d2d5c"/><stop offset="1" stop-color="#4b5d93"/></linearGradient><linearGradient id="wat" x1="0" y1="0" x2="0" y2="1"><stop offset="0" stop-color="#18264a"/><stop offset="1" stop-color="#0a1129"/></linearGradient></defs>
<rect width="400" height="200" fill="url(#s)"/><circle cx="311.1" cy="60.1" r="1.2" fill="#fff" opacity="0.9"/><circle cx="375.6" cy="18.9" r="0.7" fill="#fff" opacity="0.55"/><circle cx="174.1" cy="83.7" r="0.7" fill="#fff" opacity="0.55"/><circle cx="29.5" cy="53.6" r="0.7" fill="#fff" opacity="0.9"/><circle cx="322.6" cy="71.7" r="0.7" fill="#fff" opacity="0.55"/><circle cx="65.4" cy="39.3" r="1.2" fill="#fff" opacity="0.55"/><circle cx="59.8" cy="63.2" r="0.7" fill="#fff" opacity="0.9"/><circle cx="59.3" cy="53" r="0.7" fill="#fff" opacity="0.55"/><circle cx="324.4" cy="18.4" r="0.7" fill="#fff" opacity="0.55"/><circle cx="322.2" cy="68" r="0.7" fill="#fff" opacity="0.9"/><circle cx="151.9" cy="71.4" r="1.2" fill="#fff" opacity="0.55"/><circle cx="329.4" cy="23.1" r="0.7" fill="#fff" opacity="0.55"/><circle cx="384.9" cy="21.6" r="0.7" fill="#fff" opacity="0.9"/><circle cx="376.3" cy="38.8" r="0.7" fill="#fff" opacity="0.55"/><circle cx="73.2" cy="70.9" r="0.7" fill="#fff" opacity="0.55"/><circle cx="325.5" cy="75" r="1.2" fill="#fff" opacity="0.9"/><circle cx="388.3" cy="25.4" r="0.7" fill="#fff" opacity="0.55"/><circle cx="321.4" cy="17.6" r="0.7" fill="#fff" opacity="0.55"/><circle cx="8.2" cy="31.8" r="0.7" fill="#fff" opacity="0.9"/><circle cx="383.8" cy="46" r="0.7" fill="#fff" opacity="0.55"/><circle cx="391" cy="64.2" r="1.2" fill="#fff" opacity="0.55"/><circle cx="187" cy="62.8" r="0.7" fill="#fff" opacity="0.9"/><circle cx="200.4" cy="64.1" r="0.7" fill="#fff" opacity="0.55"/><circle cx="120.1" cy="68.7" r="0.7" fill="#fff" opacity="0.55"/><circle cx="335.1" cy="21.5" r="0.7" fill="#fff" opacity="0.9"/><circle cx="31.7" cy="11.1" r="1.2" fill="#fff" opacity="0.55"/><circle cx="22.7" cy="35.4" r="0.7" fill="#fff" opacity="0.55"/><circle cx="176.9" cy="85.7" r="0.7" fill="#fff" opacity="0.9"/><circle cx="391.7" cy="35.5" r="0.7" fill="#fff" opacity="0.55"/><circle cx="213.4" cy="86.9" r="0.7" fill="#fff" opacity="0.55"/><circle cx="320" cy="15.4" r="1.2" fill="#fff" opacity="0.9"/><circle cx="179.1" cy="55.7" r="0.7" fill="#fff" opacity="0.55"/><circle cx="307.6" cy="5.6" r="0.7" fill="#fff" opacity="0.55"/><circle cx="257.4" cy="78.9" r="0.7" fill="#fff" opacity="0.9"/><circle cx="287.4" cy="62.4" r="0.7" fill="#fff" opacity="0.55"/><circle cx="190.1" cy="82.8" r="1.2" fill="#fff" opacity="0.55"/><circle cx="32.4" cy="80.5" r="0.7" fill="#fff" opacity="0.9"/><circle cx="69.7" cy="66.6" r="0.7" fill="#fff" opacity="0.55"/><circle cx="235.4" cy="24.5" r="0.7" fill="#fff" opacity="0.55"/><circle cx="109.3" cy="52.1" r="0.7" fill="#fff" opacity="0.9"/><circle cx="14.4" cy="42.1" r="1.2" fill="#fff" opacity="0.55"/><circle cx="35.7" cy="81.6" r="0.7" fill="#fff" opacity="0.55"/><circle cx="180.6" cy="60.8" r="0.7" fill="#fff" opacity="0.9"/><circle cx="279.9" cy="54.8" r="0.7" fill="#fff" opacity="0.55"/><circle cx="380.8" cy="64.3" r="0.7" fill="#fff" opacity="0.55"/><circle cx="96.5" cy="3.1" r="1.2" fill="#fff" opacity="0.9"/><circle cx="70" cy="40" r="11" fill="#f3f0dc" opacity=".9"/><path d="M0 200 L0 146 L0 139.8 L20 140.6 L40 142.2 L60 144.1 L80 145.5 L100 145.9 L120 145.1 L140 143.5 L160 141.9 L180 140.9 L200 140.9 L220 141.8 L240 143.2 L260 144.2 L280 144.4 L300 143.4 L320 141.5 L340 139.5 L360 138 L380 137.5 L400 138.2 L400 200Z" fill="#141d3a"/><rect x="0" y="146" width="400" height="54" fill="url(#wat)"/><path d="M95 25 L98.5 31.2 L102 37.1 L105.5 42.9 L109 48.4 L112.5 53.7 L116 58.8 L119.5 63.7 L123 68.4 L126.5 72.9 L130 77.2 L133.5 81.3 L137 85.2 L140.5 88.8 L144 92.3 L147.5 95.5 L151 98.5 L154.5 101.3 L158 104 L161.5 106.4 L165 108.6 L168.5 110.5 L172 112.3 L175.5 113.9 L179 115.2 L182.5 116.4 L186 117.3 L189.5 118.1 L193 118.6 L196.5 118.9 L200 119 L203.5 118.9 L207 118.6 L210.5 118.1 L214 117.3 L217.5 116.4 L221 115.2 L224.5 113.9 L228 112.3 L231.5 110.5 L235 108.6 L238.5 106.4 L242 104 L245.5 101.3 L249 98.5 L252.5 95.5 L256 92.3 L259.5 88.8 L263 85.2 L266.5 81.3 L270 77.2 L273.5 72.9 L277 68.4 L280.5 63.7 L284 58.8 L287.5 53.7 L291 48.4 L294.5 42.9 L298 37.1 L301.5 31.2 L305 25" fill="none" stroke="#e8ecf6" stroke-width="2"/><path d="M0 120 Q40 86 95 25" fill="none" stroke="#e8ecf6" stroke-width="2"/><path d="M400 120 Q360 86 305 25" fill="none" stroke="#e8ecf6" stroke-width="2"/><path d="M98.5 31.2 V122" stroke="#aeb9d6" stroke-width=".5"/><path d="M102 37.1 V122" stroke="#aeb9d6" stroke-width=".5"/><path d="M105.5 42.9 V122" stroke="#aeb9d6" stroke-width=".5"/><path d="M109 48.4 V122" stroke="#aeb9d6" stroke-width=".5"/><path d="M112.5 53.7 V122" stroke="#aeb9d6" stroke-width=".5"/><path d="M116 58.8 V122" stroke="#aeb9d6" stroke-width=".5"/><path d="M119.5 63.7 V122" stroke="#aeb9d6" stroke-width=".5"/><path d="M123 68.4 V122" stroke="#aeb9d6" stroke-width=".5"/><path d="M126.5 72.9 V122" stroke="#aeb9d6" stroke-width=".5"/><path d="M130 77.2 V122" stroke="#aeb9d6" stroke-width=".5"/><path d="M133.5 81.3 V122" stroke="#aeb9d6" stroke-width=".5"/><path d="M137 85.2 V122" stroke="#aeb9d6" stroke-width=".5"/><path d="M140.5 88.8 V122" stroke="#aeb9d6" stroke-width=".5"/><path d="M144 92.3 V122" stroke="#aeb9d6" stroke-width=".5"/><path d="M147.5 95.5 V122" stroke="#aeb9d6" stroke-width=".5"/><path d="M151 98.5 V122" stroke="#aeb9d6" stroke-width=".5"/><path d="M154.5 101.3 V122" stroke="#aeb9d6" stroke-width=".5"/><path d="M158 104 V122" stroke="#aeb9d6" stroke-width=".5"/><path d="M161.5 106.4 V122" stroke="#aeb9d6" stroke-width=".5"/><path d="M165 108.6 V122" stroke="#aeb9d6" stroke-width=".5"/><path d="M168.5 110.5 V122" stroke="#aeb9d6" stroke-width=".5"/><path d="M172 112.3 V122" stroke="#aeb9d6" stroke-width=".5"/><path d="M175.5 113.9 V122" stroke="#aeb9d6" stroke-width=".5"/><path d="M179 115.2 V122" stroke="#aeb9d6" stroke-width=".5"/><path d="M182.5 116.4 V122" stroke="#aeb9d6" stroke-width=".5"/><path d="M186 117.3 V122" stroke="#aeb9d6" stroke-width=".5"/><path d="M189.5 118.1 V122" stroke="#aeb9d6" stroke-width=".5"/><path d="M193 118.6 V122" stroke="#aeb9d6" stroke-width=".5"/><path d="M196.5 118.9 V122" stroke="#aeb9d6" stroke-width=".5"/><path d="M200 119 V122" stroke="#aeb9d6" stroke-width=".5"/><path d="M203.5 118.9 V122" stroke="#aeb9d6" stroke-width=".5"/><path d="M207 118.6 V122" stroke="#aeb9d6" stroke-width=".5"/><path d="M210.5 118.1 V122" stroke="#aeb9d6" stroke-width=".5"/><path d="M214 117.3 V122" stroke="#aeb9d6" stroke-width=".5"/><path d="M217.5 116.4 V122" stroke="#aeb9d6" stroke-width=".5"/><path d="M221 115.2 V122" stroke="#aeb9d6" stroke-width=".5"/><path d="M224.5 113.9 V122" stroke="#aeb9d6" stroke-width=".5"/><path d="M228 112.3 V122" stroke="#aeb9d6" stroke-width=".5"/><path d="M231.5 110.5 V122" stroke="#aeb9d6" stroke-width=".5"/><path d="M235 108.6 V122" stroke="#aeb9d6" stroke-width=".5"/><path d="M238.5 106.4 V122" stroke="#aeb9d6" stroke-width=".5"/><path d="M242 104 V122" stroke="#aeb9d6" stroke-width=".5"/><path d="M245.5 101.3 V122" stroke="#aeb9d6" stroke-width=".5"/><path d="M249 98.5 V122" stroke="#aeb9d6" stroke-width=".5"/><path d="M252.5 95.5 V122" stroke="#aeb9d6" stroke-width=".5"/><path d="M256 92.3 V122" stroke="#aeb9d6" stroke-width=".5"/><path d="M259.5 88.8 V122" stroke="#aeb9d6" stroke-width=".5"/><path d="M263 85.2 V122" stroke="#aeb9d6" stroke-width=".5"/><path d="M266.5 81.3 V122" stroke="#aeb9d6" stroke-width=".5"/><path d="M270 77.2 V122" stroke="#aeb9d6" stroke-width=".5"/><path d="M273.5 72.9 V122" stroke="#aeb9d6" stroke-width=".5"/><path d="M277 68.4 V122" stroke="#aeb9d6" stroke-width=".5"/><path d="M280.5 63.7 V122" stroke="#aeb9d6" stroke-width=".5"/><path d="M284 58.8 V122" stroke="#aeb9d6" stroke-width=".5"/><path d="M287.5 53.7 V122" stroke="#aeb9d6" stroke-width=".5"/><path d="M291 48.4 V122" stroke="#aeb9d6" stroke-width=".5"/><path d="M294.5 42.9 V122" stroke="#aeb9d6" stroke-width=".5"/><path d="M298 37.1 V122" stroke="#aeb9d6" stroke-width=".5"/><path d="M301.5 31.2 V122" stroke="#aeb9d6" stroke-width=".5"/><circle cx="95" cy="25" r="1.2" fill="#9ff0ff"/><circle cx="105.5" cy="42.9" r="1.2" fill="#9ff0ff"/><circle cx="116" cy="58.8" r="1.2" fill="#9ff0ff"/><circle cx="126.5" cy="72.9" r="1.2" fill="#9ff0ff"/><circle cx="137" cy="85.2" r="1.2" fill="#9ff0ff"/><circle cx="147.5" cy="95.5" r="1.2" fill="#9ff0ff"/><circle cx="158" cy="104" r="1.2" fill="#9ff0ff"/><circle cx="168.5" cy="110.5" r="1.2" fill="#9ff0ff"/><circle cx="179" cy="115.2" r="1.2" fill="#9ff0ff"/><circle cx="189.5" cy="118.1" r="1.2" fill="#9ff0ff"/><circle cx="200" cy="119" r="1.2" fill="#9ff0ff"/><circle cx="210.5" cy="118.1" r="1.2" fill="#9ff0ff"/><circle cx="221" cy="115.2" r="1.2" fill="#9ff0ff"/><circle cx="231.5" cy="110.5" r="1.2" fill="#9ff0ff"/><circle cx="242" cy="104" r="1.2" fill="#9ff0ff"/><circle cx="252.5" cy="95.5" r="1.2" fill="#9ff0ff"/><circle cx="263" cy="85.2" r="1.2" fill="#9ff0ff"/><circle cx="273.5" cy="72.9" r="1.2" fill="#9ff0ff"/><circle cx="284" cy="58.8" r="1.2" fill="#9ff0ff"/><circle cx="294.5" cy="42.9" r="1.2" fill="#9ff0ff"/><circle cx="305" cy="25" r="1.2" fill="#9ff0ff"/><rect x="0" y="122" width="400" height="7" fill="#c9d0e0"/><path d="M0 122 L3.5 129 L7 122" stroke="#7d88a6" stroke-width=".8" fill="none"/><path d="M7 122 L10.5 129 L14 122" stroke="#7d88a6" stroke-width=".8" fill="none"/><path d="M14 122 L17.5 129 L21 122" stroke="#7d88a6" stroke-width=".8" fill="none"/><path d="M21 122 L24.5 129 L28 122" stroke="#7d88a6" stroke-width=".8" fill="none"/><path d="M28 122 L31.5 129 L35 122" stroke="#7d88a6" stroke-width=".8" fill="none"/><path d="M35 122 L38.5 129 L42 122" stroke="#7d88a6" stroke-width=".8" fill="none"/><path d="M42 122 L45.5 129 L49 122" stroke="#7d88a6" stroke-width=".8" fill="none"/><path d="M49 122 L52.5 129 L56 122" stroke="#7d88a6" stroke-width=".8" fill="none"/><path d="M56 122 L59.5 129 L63 122" stroke="#7d88a6" stroke-width=".8" fill="none"/><path d="M63 122 L66.5 129 L70 122" stroke="#7d88a6" stroke-width=".8" fill="none"/><path d="M70 122 L73.5 129 L77 122" stroke="#7d88a6" stroke-width=".8" fill="none"/><path d="M77 122 L80.5 129 L84 122" stroke="#7d88a6" stroke-width=".8" fill="none"/><path d="M84 122 L87.5 129 L91 122" stroke="#7d88a6" stroke-width=".8" fill="none"/><path d="M91 122 L94.5 129 L98 122" stroke="#7d88a6" stroke-width=".8" fill="none"/><path d="M98 122 L101.5 129 L105 122" stroke="#7d88a6" stroke-width=".8" fill="none"/><path d="M105 122 L108.5 129 L112 122" stroke="#7d88a6" stroke-width=".8" fill="none"/><path d="M112 122 L115.5 129 L119 122" stroke="#7d88a6" stroke-width=".8" fill="none"/><path d="M119 122 L122.5 129 L126 122" stroke="#7d88a6" stroke-width=".8" fill="none"/><path d="M126 122 L129.5 129 L133 122" stroke="#7d88a6" stroke-width=".8" fill="none"/><path d="M133 122 L136.5 129 L140 122" stroke="#7d88a6" stroke-width=".8" fill="none"/><path d="M140 122 L143.5 129 L147 122" stroke="#7d88a6" stroke-width=".8" fill="none"/><path d="M147 122 L150.5 129 L154 122" stroke="#7d88a6" stroke-width=".8" fill="none"/><path d="M154 122 L157.5 129 L161 122" stroke="#7d88a6" stroke-width=".8" fill="none"/><path d="M161 122 L164.5 129 L168 122" stroke="#7d88a6" stroke-width=".8" fill="none"/><path d="M168 122 L171.5 129 L175 122" stroke="#7d88a6" stroke-width=".8" fill="none"/><path d="M175 122 L178.5 129 L182 122" stroke="#7d88a6" stroke-width=".8" fill="none"/><path d="M182 122 L185.5 129 L189 122" stroke="#7d88a6" stroke-width=".8" fill="none"/><path d="M189 122 L192.5 129 L196 122" stroke="#7d88a6" stroke-width=".8" fill="none"/><path d="M196 122 L199.5 129 L203 122" stroke="#7d88a6" stroke-width=".8" fill="none"/><path d="M203 122 L206.5 129 L210 122" stroke="#7d88a6" stroke-width=".8" fill="none"/><path d="M210 122 L213.5 129 L217 122" stroke="#7d88a6" stroke-width=".8" fill="none"/><path d="M217 122 L220.5 129 L224 122" stroke="#7d88a6" stroke-width=".8" fill="none"/><path d="M224 122 L227.5 129 L231 122" stroke="#7d88a6" stroke-width=".8" fill="none"/><path d="M231 122 L234.5 129 L238 122" stroke="#7d88a6" stroke-width=".8" fill="none"/><path d="M238 122 L241.5 129 L245 122" stroke="#7d88a6" stroke-width=".8" fill="none"/><path d="M245 122 L248.5 129 L252 122" stroke="#7d88a6" stroke-width=".8" fill="none"/><path d="M252 122 L255.5 129 L259 122" stroke="#7d88a6" stroke-width=".8" fill="none"/><path d="M259 122 L262.5 129 L266 122" stroke="#7d88a6" stroke-width=".8" fill="none"/><path d="M266 122 L269.5 129 L273 122" stroke="#7d88a6" stroke-width=".8" fill="none"/><path d="M273 122 L276.5 129 L280 122" stroke="#7d88a6" stroke-width=".8" fill="none"/><path d="M280 122 L283.5 129 L287 122" stroke="#7d88a6" stroke-width=".8" fill="none"/><path d="M287 122 L290.5 129 L294 122" stroke="#7d88a6" stroke-width=".8" fill="none"/><path d="M294 122 L297.5 129 L301 122" stroke="#7d88a6" stroke-width=".8" fill="none"/><path d="M301 122 L304.5 129 L308 122" stroke="#7d88a6" stroke-width=".8" fill="none"/><path d="M308 122 L311.5 129 L315 122" stroke="#7d88a6" stroke-width=".8" fill="none"/><path d="M315 122 L318.5 129 L322 122" stroke="#7d88a6" stroke-width=".8" fill="none"/><path d="M322 122 L325.5 129 L329 122" stroke="#7d88a6" stroke-width=".8" fill="none"/><path d="M329 122 L332.5 129 L336 122" stroke="#7d88a6" stroke-width=".8" fill="none"/><path d="M336 122 L339.5 129 L343 122" stroke="#7d88a6" stroke-width=".8" fill="none"/><path d="M343 122 L346.5 129 L350 122" stroke="#7d88a6" stroke-width=".8" fill="none"/><path d="M350 122 L353.5 129 L357 122" stroke="#7d88a6" stroke-width=".8" fill="none"/><path d="M357 122 L360.5 129 L364 122" stroke="#7d88a6" stroke-width=".8" fill="none"/><path d="M364 122 L367.5 129 L371 122" stroke="#7d88a6" stroke-width=".8" fill="none"/><path d="M371 122 L374.5 129 L378 122" stroke="#7d88a6" stroke-width=".8" fill="none"/><path d="M378 122 L381.5 129 L385 122" stroke="#7d88a6" stroke-width=".8" fill="none"/><path d="M385 122 L388.5 129 L392 122" stroke="#7d88a6" stroke-width=".8" fill="none"/><path d="M392 122 L395.5 129 L399 122" stroke="#7d88a6" stroke-width=".8" fill="none"/><path d="M399 122 L402.5 129 L406 122" stroke="#7d88a6" stroke-width=".8" fill="none"/><path d="M88 152 L90 22 H100 L102 152Z" fill="#dfe5f1"/><rect x="89" y="50" width="12" height="3" fill="#9aa6c4"/><rect x="89" y="80" width="12" height="3" fill="#9aa6c4"/><rect x="89" y="108" width="12" height="3" fill="#9aa6c4"/><circle cx="95" cy="20" r="2" fill="#ff5d5d"/><path d="M298 152 L300 22 H310 L312 152Z" fill="#dfe5f1"/><rect x="299" y="50" width="12" height="3" fill="#9aa6c4"/><rect x="299" y="80" width="12" height="3" fill="#9aa6c4"/><rect x="299" y="108" width="12" height="3" fill="#9aa6c4"/><circle cx="305" cy="20" r="2" fill="#ff5d5d"/><circle cx="4" cy="125" r="1" fill="#ffe08a"/><circle cx="15" cy="125" r="1" fill="#ffe08a"/><circle cx="26" cy="125" r="1" fill="#ffe08a"/><circle cx="37" cy="125" r="1" fill="#ffe08a"/><circle cx="48" cy="125" r="1" fill="#ffe08a"/><circle cx="59" cy="125" r="1" fill="#ffe08a"/><circle cx="70" cy="125" r="1" fill="#ffe08a"/><circle cx="81" cy="125" r="1" fill="#ffe08a"/><circle cx="92" cy="125" r="1" fill="#ffe08a"/><circle cx="103" cy="125" r="1" fill="#ffe08a"/><circle cx="114" cy="125" r="1" fill="#ffe08a"/><circle cx="125" cy="125" r="1" fill="#ffe08a"/><circle cx="136" cy="125" r="1" fill="#ffe08a"/><circle cx="147" cy="125" r="1" fill="#ffe08a"/><circle cx="158" cy="125" r="1" fill="#ffe08a"/><circle cx="169" cy="125" r="1" fill="#ffe08a"/><circle cx="180" cy="125" r="1" fill="#ffe08a"/><circle cx="191" cy="125" r="1" fill="#ffe08a"/><circle cx="202" cy="125" r="1" fill="#ffe08a"/><circle cx="213" cy="125" r="1" fill="#ffe08a"/><circle cx="224" cy="125" r="1" fill="#ffe08a"/><circle cx="235" cy="125" r="1" fill="#ffe08a"/><circle cx="246" cy="125" r="1" fill="#ffe08a"/><circle cx="257" cy="125" r="1" fill="#ffe08a"/><circle cx="268" cy="125" r="1" fill="#ffe08a"/><circle cx="279" cy="125" r="1" fill="#ffe08a"/><circle cx="290" cy="125" r="1" fill="#ffe08a"/><circle cx="301" cy="125" r="1" fill="#ffe08a"/><circle cx="312" cy="125" r="1" fill="#ffe08a"/><circle cx="323" cy="125" r="1" fill="#ffe08a"/><circle cx="334" cy="125" r="1" fill="#ffe08a"/><circle cx="345" cy="125" r="1" fill="#ffe08a"/><circle cx="356" cy="125" r="1" fill="#ffe08a"/><circle cx="367" cy="125" r="1" fill="#ffe08a"/><circle cx="378" cy="125" r="1" fill="#ffe08a"/><circle cx="389" cy="125" r="1" fill="#ffe08a"/>
</svg>
