<svg xmlns="http://www.w3.org/2000/svg" viewBox="0 0 400 200" width="400" height="200">
<defs><linearGradient id="s" x1="0" y1="0" x2="0" y2="1"><stop offset="0" stop-color="#8ea4b8"/><stop offset="0.5" stop-color="#c9d6df"/><stop offset="1" stop-color="#e4ebef"/></linearGradient><linearGradient id="wat" x1="0" y1="0" x2="0" y2="1"><stop offset="0" stop-color="#5b7387"/><stop offset="1" stop-color="#3b5064"/></linearGradient></defs>
<rect width="400" height="200" fill="url(#s)"/><path d="M0 200 L0 140 L0 133.1 L20 134.9 L40 136.6 L60 137.5 L80 136.8 L100 134.6 L120 131.8 L140 129.2 L160 127.9 L180 128.2 L200 129.7 L220 131.7 L240 133 L260 133 L280 131.6 L300 129.4 L320 127.3 L340 126.3 L360 126.9 L380 128.9 L400 131.6 L400 200Z" fill="#7f9286" opacity="0.6"/><rect x="0" y="150" width="400" height="50" fill="url(#wat)"/><path d="M10 120 L60 48 H80 L130 120 Z" fill="none" stroke="#b0352b" stroke-width="3.2"/><path d="M10 120 Q40 146 60 150 M130 120 Q100 146 80 150 M60 48 V150 M80 48 V150" fill="none" stroke="#b0352b" stroke-width="3.6"/><path d="M20 105.6 V120 M120 105.6 V120" stroke="#b0352b" stroke-width="1.4"/><path d="M30 91.2 V120 M110 91.2 V120" stroke="#b0352b" stroke-width="1.4"/><path d="M40 76.8 V120 M100 76.8 V120" stroke="#b0352b" stroke-width="1.4"/><path d="M50 62.4 V120 M90 62.4 V120" stroke="#b0352b" stroke-width="1.4"/><path d="M20 120 L60 70 M120 120 L80 70" stroke="#b0352b" stroke-width="1.2"/><rect x="54" y="150" width="32" height="10" fill="#7b7468"/><path d="M140 120 L190 48 H210 L260 120 Z" fill="none" stroke="#b0352b" stroke-width="3.2"/><path d="M140 120 Q170 146 190 150 M260 120 Q230 146 210 150 M190 48 V150 M210 48 V150" fill="none" stroke="#b0352b" stroke-width="3.6"/><path d="M150 105.6 V120 M250 105.6 V120" stroke="#b0352b" stroke-width="1.4"/><path d="M160 91.2 V120 M240 91.2 V120" stroke="#b0352b" stroke-width="1.4"/><path d="M170 76.8 V120 M230 76.8 V120" stroke="#b0352b" stroke-width="1.4"/><path d="M180 62.4 V120 M220 62.4 V120" stroke="#b0352b" stroke-width="1.4"/><path d="M150 120 L190 70 M250 120 L210 70" stroke="#b0352b" stroke-width="1.2"/><rect x="184" y="150" width="32" height="10" fill="#7b7468"/><path d="M270 120 L320 48 H340 L390 120 Z" fill="none" stroke="#b0352b" stroke-width="3.2"/><path d="M270 120 Q300 146 320 150 M390 120 Q360 146 340 150 M320 48 V150 M340 48 V150" fill="none" stroke="#b0352b" stroke-width="3.6"/><path d="M280 105.6 V120 M380 105.6 V120" stroke="#b0352b" stroke-width="1.4"/><path d="M290 91.2 V120 M370 91.2 V120" stroke="#b0352b" stroke-width="1.4"/><path d="M300 76.8 V120 M360 76.8 V120" stroke="#b0352b" stroke-width="1.4"/><path d="M310 62.4 V120 M350 62.4 V120" stroke="#b0352b" stroke-width="1.4"/><path d="M280 120 L320 70 M380 120 L340 70" stroke="#b0352b" stroke-width="1.2"/><rect x="314" y="150" width="32" height="10" fill="#7b7468"/><rect x="0" y="120" width="400" height="5" fill="#b0352b"/><path d="M130 120 H140 M260 120 H270" stroke="#5e1b16" stroke-width="5"/><path d="M150 113 h34 v7 h-34z M186 114 h20 v6 h-20z" fill="#2d2d33"/><path d="M146 108 q-6 -10 -16 -8 q-10 -12 -20 -4" fill="none" stroke="#eef" stroke-width="3" opacity=".7"/>
</svg>
