<svg xmlns="http://www.w3.org/2000/svg" viewBox="0 0 400 200" width="400" height="200">
<defs><linearGradient id="s" x1="0" y1="0" x2="0" y2="1"><stop offset="0" stop-color="#f08a5d"/><stop offset="0.5" stop-color="#f9c58d"/><stop offset="1" stop-color="#fbe7d0"/></linearGradient><linearGradient id="wat" x1="0" y1="0" x2="0" y2="1"><stop offset="0" stop-color="#3e6f8e"/><stop offset="1" stop-color="#1f4560"/></linearGradient><linearGradient id="fog" x1="0" x2="0" y1="0" y2="1"><stop offset="0" stop-color="#fff" stop-opacity="0"/><stop offset=".5" stop-color="#fff" stop-opacity=".75"/><stop offset="1" stop-color="#fff" stop-opacity="0"/></linearGradient></defs>
<rect width="400" height="200" fill="url(#s)"/><path d="M0 200 L0 140 L0 122.3 L20 118.1 L40 117.2 L60 119.3 L80 123.1 L100 126.4 L120 127.3 L140 125 L160 120.2 L180 114.7 L200 110.9 L220 110.2 L240 113 L260 118 L280 123.1 L300 126.3 L320 126.4 L340 123.6 L360 119.6 L380 116.7 L400 116.5 L400 200Z" fill="#a0705a" opacity="0.55"/><rect x="0" y="146" width="400" height="54" fill="url(#wat)"/><path d="M110 34 L113.8 40.7 L117.5 47.1 L121.3 53.2 L125 59.1 L128.8 64.6 L132.5 69.9 L136.3 74.9 L140 79.6 L143.8 84 L147.5 88.1 L151.3 91.9 L155 95.5 L158.8 98.8 L162.5 101.8 L166.3 104.5 L170 106.9 L173.8 109 L177.5 110.9 L181.3 112.4 L185 113.7 L188.8 114.7 L192.5 115.4 L196.3 115.9 L200 116 L203.8 115.9 L207.5 115.4 L211.3 114.7 L215 113.7 L218.8 112.4 L222.5 110.9 L226.3 109 L230 106.9 L233.8 104.5 L237.5 101.8 L241.3 98.8 L245 95.5 L248.8 91.9 L252.5 88.1 L256.3 84 L260 79.6 L263.8 74.9 L267.5 69.9 L271.3 64.6 L275 59.1 L278.8 53.2 L282.5 47.1 L286.3 40.7 L290 34" fill="none" stroke="#c0362c" stroke-width="2.6"/><path d="M0 118 Q60 98 110 34" fill="none" stroke="#c0362c" stroke-width="2.6"/><path d="M400 118 Q340 98 290 34" fill="none" stroke="#c0362c" stroke-width="2.6"/><path d="M113.8 40.7 V120" stroke="#c0362c" stroke-width=".7"/><path d="M117.5 47.1 V120" stroke="#c0362c" stroke-width=".7"/><path d="M121.3 53.2 V120" stroke="#c0362c" stroke-width=".7"/><path d="M125 59.1 V120" stroke="#c0362c" stroke-width=".7"/><path d="M128.8 64.6 V120" stroke="#c0362c" stroke-width=".7"/><path d="M132.5 69.9 V120" stroke="#c0362c" stroke-width=".7"/><path d="M136.3 74.9 V120" stroke="#c0362c" stroke-width=".7"/><path d="M140 79.6 V120" stroke="#c0362c" stroke-width=".7"/><path d="M143.8 84 V120" stroke="#c0362c" stroke-width=".7"/><path d="M147.5 88.1 V120" stroke="#c0362c" stroke-width=".7"/><path d="M151.3 91.9 V120" stroke="#c0362c" stroke-width=".7"/><path d="M155 95.5 V120" stroke="#c0362c" stroke-width=".7"/><path d="M158.8 98.8 V120" stroke="#c0362c" stroke-width=".7"/><path d="M162.5 101.8 V120" stroke="#c0362c" stroke-width=".7"/><path d="M166.3 104.5 V120" stroke="#c0362c" stroke-width=".7"/><path d="M170 106.9 V120" stroke="#c0362c" stroke-width=".7"/><path d="M173.8 109 V120" stroke="#c0362c" stroke-width=".7"/><path d="M177.5 110.9 V120" stroke="#c0362c" stroke-width=".7"/><path d="M181.3 112.4 V120" stroke="#c0362c" stroke-width=".7"/><path d="M185 113.7 V120" stroke="#c0362c" stroke-width=".7"/><path d="M188.8 114.7 V120" stroke="#c0362c" stroke-width=".7"/><path d="M192.5 115.4 V120" stroke="#c0362c" stroke-width=".7"/><path d="M196.3 115.9 V120" stroke="#c0362c" stroke-width=".7"/><path d="M200 116 V120" stroke="#c0362c" stroke-width=".7"/><path d="M203.8 115.9 V120" stroke="#c0362c" stroke-width=".7"/><path d="M207.5 115.4 V120" stroke="#c0362c" stroke-width=".7"/><path d="M211.3 114.7 V120" stroke="#c0362c" stroke-width=".7"/><path d="M215 113.7 V120" stroke="#c0362c" stroke-width=".7"/><path d="M218.8 112.4 V120" stroke="#c0362c" stroke-width=".7"/><path d="M222.5 110.9 V120" stroke="#c0362c" stroke-width=".7"/><path d="M226.3 109 V120" stroke="#c0362c" stroke-width=".7"/><path d="M230 106.9 V120" stroke="#c0362c" stroke-width=".7"/><path d="M233.8 104.5 V120" stroke="#c0362c" stroke-width=".7"/><path d="M237.5 101.8 V120" stroke="#c0362c" stroke-width=".7"/><path d="M241.3 98.8 V120" stroke="#c0362c" stroke-width=".7"/><path d="M245 95.5 V120" stroke="#c0362c" stroke-width=".7"/><path d="M248.8 91.9 V120" stroke="#c0362c" stroke-width=".7"/><path d="M252.5 88.1 V120" stroke="#c0362c" stroke-width=".7"/><path d="M256.3 84 V120" stroke="#c0362c" stroke-width=".7"/><path d="M260 79.6 V120" stroke="#c0362c" stroke-width=".7"/><path d="M263.8 74.9 V120" stroke="#c0362c" stroke-width=".7"/><path d="M267.5 69.9 V120" stroke="#c0362c" stroke-width=".7"/><path d="M271.3 64.6 V120" stroke="#c0362c" stroke-width=".7"/><path d="M275 59.1 V120" stroke="#c0362c" stroke-width=".7"/><path d="M278.8 53.2 V120" stroke="#c0362c" stroke-width=".7"/><path d="M282.5 47.1 V120" stroke="#c0362c" stroke-width=".7"/><path d="M286.3 40.7 V120" stroke="#c0362c" stroke-width=".7"/><path d="M8 115.9 V120" stroke="#c0362c" stroke-width=".7"/><path d="M392 115.9 V120" stroke="#c0362c" stroke-width=".7"/><path d="M15 113.5 V120" stroke="#c0362c" stroke-width=".7"/><path d="M385 113.5 V120" stroke="#c0362c" stroke-width=".7"/><path d="M22 110.6 V120" stroke="#c0362c" stroke-width=".7"/><path d="M378 110.6 V120" stroke="#c0362c" stroke-width=".7"/><path d="M29 107.3 V120" stroke="#c0362c" stroke-width=".7"/><path d="M371 107.3 V120" stroke="#c0362c" stroke-width=".7"/><path d="M36 103.5 V120" stroke="#c0362c" stroke-width=".7"/><path d="M364 103.5 V120" stroke="#c0362c" stroke-width=".7"/><path d="M43 99.2 V120" stroke="#c0362c" stroke-width=".7"/><path d="M357 99.2 V120" stroke="#c0362c" stroke-width=".7"/><path d="M50 94.4 V120" stroke="#c0362c" stroke-width=".7"/><path d="M350 94.4 V120" stroke="#c0362c" stroke-width=".7"/><path d="M57 89.2 V120" stroke="#c0362c" stroke-width=".7"/><path d="M343 89.2 V120" stroke="#c0362c" stroke-width=".7"/><path d="M64 83.4 V120" stroke="#c0362c" stroke-width=".7"/><path d="M336 83.4 V120" stroke="#c0362c" stroke-width=".7"/><path d="M71 77.2 V120" stroke="#c0362c" stroke-width=".7"/><path d="M329 77.2 V120" stroke="#c0362c" stroke-width=".7"/><path d="M78 70.6 V120" stroke="#c0362c" stroke-width=".7"/><path d="M322 70.6 V120" stroke="#c0362c" stroke-width=".7"/><path d="M85 63.4 V120" stroke="#c0362c" stroke-width=".7"/><path d="M315 63.4 V120" stroke="#c0362c" stroke-width=".7"/><path d="M92 55.8 V120" stroke="#c0362c" stroke-width=".7"/><path d="M308 55.8 V120" stroke="#c0362c" stroke-width=".7"/><path d="M99 47.7 V120" stroke="#c0362c" stroke-width=".7"/><path d="M301 47.7 V120" stroke="#c0362c" stroke-width=".7"/><path d="M106 39.1 V120" stroke="#c0362c" stroke-width=".7"/><path d="M294 39.1 V120" stroke="#c0362c" stroke-width=".7"/><rect x="0" y="120" width="400" height="6" fill="#c0362c"/><path d="M0 126 H400" stroke="#7a2019" stroke-width="2"/><path d="M101 152 V30 H106 V152Z M114 152 V30 H119 V152Z" fill="#c0362c"/><rect x="101" y="44" width="18" height="4" fill="#c0362c"/><rect x="101" y="66" width="18" height="4" fill="#c0362c"/><rect x="101" y="88" width="18" height="4" fill="#c0362c"/><rect x="101" y="108" width="18" height="5" fill="#c0362c"/><rect x="98" y="150" width="24" height="8" fill="#8f877a"/><path d="M281 152 V30 H286 V152Z M294 152 V30 H299 V152Z" fill="#c0362c"/><rect x="281" y="44" width="18" height="4" fill="#c0362c"/><rect x="281" y="66" width="18" height="4" fill="#c0362c"/><rect x="281" y="88" width="18" height="4" fill="#c0362c"/><rect x="281" y="108" width="18" height="5" fill="#c0362c"/><rect x="278" y="150" width="24" height="8" fill="#8f877a"/><rect x="0" y="128" width="400" height="34" fill="url(#fog)"/>
</svg>
