<svg xmlns="http://www.w3.org/2000/svg" viewBox="0 0 400 200" width="400" height="200">
<defs><linearGradient id="s" x1="0" y1="0" x2="0" y2="1"><stop offset="0" stop-color="#7fb3dc"/><stop offset="0.5" stop-color="#c6e0ef"/><stop offset="1" stop-color="#eef5f7"/></linearGradient><linearGradient id="wat" x1="0" y1="0" x2="0" y2="1"><stop offset="0" stop-color="#5f7a86"/><stop offset="1" stop-color="#3d525d"/></linearGradient></defs>
<rect width="400" height="200" fill="url(#s)"/><path d="M0 200 L0 140 L0 139.8 L20 138.7 L40 137 L60 135.5 L80 134.7 L100 135 L120 136.1 L140 137.4 L160 138.3 L180 138.1 L200 136.8 L220 134.8 L240 132.9 L260 131.6 L280 131.5 L300 132.4 L320 133.8 L340 134.9 L360 135.2 L380 134.4 L400 132.9 L400 200Z" fill="#9fb0b6" opacity="0.6"/><rect x="0" y="146" width="400" height="54" fill="url(#wat)"/><path d="M0 120 Q90 122 138 58" fill="none" stroke="#5a7fa8" stroke-width="4"/><path d="M400 120 Q310 122 262 58" fill="none" stroke="#5a7fa8" stroke-width="4"/><path d="M30 117.1 V124" stroke="#5a7fa8" stroke-width="1.2"/><path d="M44 113.7 V124" stroke="#5a7fa8" stroke-width="1.2"/><path d="M58 109 V124" stroke="#5a7fa8" stroke-width="1.2"/><path d="M72 103.1 V124" stroke="#5a7fa8" stroke-width="1.2"/><path d="M86 95.9 V124" stroke="#5a7fa8" stroke-width="1.2"/><path d="M100 87.4 V124" stroke="#5a7fa8" stroke-width="1.2"/><path d="M114 77.7 V124" stroke="#5a7fa8" stroke-width="1.2"/><path d="M128 66.7 V124" stroke="#5a7fa8" stroke-width="1.2"/><path d="M370 117.1 V124" stroke="#5a7fa8" stroke-width="1.2"/><path d="M356 113.7 V124" stroke="#5a7fa8" stroke-width="1.2"/><path d="M342 109 V124" stroke="#5a7fa8" stroke-width="1.2"/><path d="M328 103.1 V124" stroke="#5a7fa8" stroke-width="1.2"/><path d="M314 95.9 V124" stroke="#5a7fa8" stroke-width="1.2"/><path d="M300 87.4 V124" stroke="#5a7fa8" stroke-width="1.2"/><path d="M286 77.7 V124" stroke="#5a7fa8" stroke-width="1.2"/><path d="M272 66.7 V124" stroke="#5a7fa8" stroke-width="1.2"/><rect x="150" y="54" width="100" height="10" fill="#5a7fa8"/><path d="M150 59 H250" stroke="#d6e4ef" stroke-width="1"/><path d="M156 54 L160 64" stroke="#3f5e82" stroke-width="1"/><path d="M164 54 L168 64" stroke="#3f5e82" stroke-width="1"/><path d="M172 54 L176 64" stroke="#3f5e82" stroke-width="1"/><path d="M180 54 L184 64" stroke="#3f5e82" stroke-width="1"/><path d="M188 54 L192 64" stroke="#3f5e82" stroke-width="1"/><path d="M196 54 L200 64" stroke="#3f5e82" stroke-width="1"/><path d="M204 54 L208 64" stroke="#3f5e82" stroke-width="1"/><path d="M212 54 L216 64" stroke="#3f5e82" stroke-width="1"/><path d="M220 54 L224 64" stroke="#3f5e82" stroke-width="1"/><path d="M228 54 L232 64" stroke="#3f5e82" stroke-width="1"/><path d="M236 54 L240 64" stroke="#3f5e82" stroke-width="1"/><path d="M244 54 L248 64" stroke="#3f5e82" stroke-width="1"/><path d="M162 124 L198 106" stroke="#4a5c6e" stroke-width="5"/><path d="M238 124 L202 106" stroke="#4a5c6e" stroke-width="5"/><rect x="0" y="124" width="138" height="5" fill="#4a5c6e"/><rect x="262" y="124" width="138" height="5" fill="#4a5c6e"/><path d="M134 150 V52 H166 V150Z" fill="#c8bba2"/><path d="M132 52 L138 30 L144 52Z M156 52 L162 30 L168 52Z M144 48 L150 18 L156 48Z" fill="#6f7f8d"/><path d="M142 110 V86 Q150 74 158 86 V110Z" fill="#7a6e5c" opacity=".7"/><rect x="146" y="64" width="8" height="12" rx="4" fill="#7a6e5c" opacity=".7"/><rect x="130" y="146" width="40" height="8" fill="#9a8f7c"/><path d="M234 150 V52 H266 V150Z" fill="#c8bba2"/><path d="M232 52 L238 30 L244 52Z M256 52 L262 30 L268 52Z M244 48 L250 18 L256 48Z" fill="#6f7f8d"/><path d="M242 110 V86 Q250 74 258 86 V110Z" fill="#7a6e5c" opacity=".7"/><rect x="246" y="64" width="8" height="12" rx="4" fill="#7a6e5c" opacity=".7"/><rect x="230" y="146" width="40" height="8" fill="#9a8f7c"/>
</svg>
