<svg xmlns="http://www.w3.org/2000/svg" width="64" height="64" viewBox="0 0 64 64"><defs><radialGradient id="jg" cx="0.35" cy="0.3" r="0.8"><stop offset="0" stop-color="#ffffff"/><stop offset="0.5" stop-color="#b6c0cb"/><stop offset="1" stop-color="#56616d"/></radialGradient><filter id="ds" x="-20%" y="-20%" width="140%" height="150%"><feDropShadow dx="0" dy="1.5" stdDeviation="1.2" flood-color="#0d1420" flood-opacity="0.45"/></filter><linearGradient id="a" x1="0" y1="0" x2="0" y2="1"><stop offset="0" stop-color="#555a63"/><stop offset="1" stop-color="#25282e"/></linearGradient><linearGradient id="b" x1="0" y1="0" x2="0" y2="1"><stop offset="0" stop-color="#7f98b2"/><stop offset="1" stop-color="#3b4d61"/></linearGradient></defs><g filter="url(#ds)"><rect x="4" y="20" width="56" height="16" rx="3" fill="url(#a)" stroke="#0f1115" stroke-width="2"/>
<rect x="4" y="20" width="56" height="4" rx="2" fill="#eef1f4"/>
<path d="M10 29 H20 M27 29 H37 M44 29 H54" stroke="#ffcc3a" stroke-width="2.6" stroke-linecap="round"/>
<rect x="6" y="36" width="52" height="9" rx="2" fill="url(#b)" stroke="#0f1115" stroke-width="2"/>
<path d="M12 40.5 H52" stroke="#dbe6f1" stroke-width="2.4" stroke-dasharray="0.1 6" stroke-linecap="round"/>
<circle cx="8" cy="22" r="6" fill="#1a1f26"/><circle cx="8" cy="22" r="4.2" fill="url(#jg)"/><circle cx="8" cy="22" r="2.0999999999999996" fill="#3a434e"/><circle cx="56" cy="22" r="6" fill="#1a1f26"/><circle cx="56" cy="22" r="4.2" fill="url(#jg)"/><circle cx="56" cy="22" r="2.0999999999999996" fill="#3a434e"/></g></svg>