<svg xmlns="http://www.w3.org/2000/svg" width="64" height="64" viewBox="0 0 64 64"><defs><radialGradient id="jg" cx="0.35" cy="0.3" r="0.8"><stop offset="0" stop-color="#ffffff"/><stop offset="0.5" stop-color="#b6c0cb"/><stop offset="1" stop-color="#56616d"/></radialGradient><filter id="ds" x="-20%" y="-20%" width="140%" height="150%"><feDropShadow dx="0" dy="1.5" stdDeviation="1.2" flood-color="#0d1420" flood-opacity="0.45"/></filter><linearGradient id="a" x1="0" y1="0" x2="1" y2="1"><stop offset="0" stop-color="#ecc186"/><stop offset="0.5" stop-color="#c38c50"/><stop offset="1" stop-color="#8f5d31"/></linearGradient></defs><g filter="url(#ds)"><g transform="rotate(-38 32 32)"><rect x="4" y="25" width="56" height="14" rx="2.5" fill="url(#a)" stroke="#5f3b1e" stroke-width="2.2"/>
<path d="M10 30 H22 M27 30 H35 M40 30 H54 M12 35 H20 M25 35 H44 M48 35 H53" stroke="#8f5d31" stroke-width="1.4" stroke-linecap="round"/>
<path d="M6 27.5 H58" stroke="#fff4dc" stroke-width="1.6" opacity="0.6"/></g>
<circle cx="12" cy="47" r="6" fill="#1a1f26"/><circle cx="12" cy="47" r="4.2" fill="url(#jg)"/><circle cx="12" cy="47" r="2.0999999999999996" fill="#3a434e"/><circle cx="52" cy="17" r="6" fill="#1a1f26"/><circle cx="52" cy="17" r="4.2" fill="url(#jg)"/><circle cx="52" cy="17" r="2.0999999999999996" fill="#3a434e"/></g></svg>